<svg xmlns="http://www.w3.org/2000/svg" width="1080" height="1080" viewBox="0 0 1080 1080" version="1.1">
	<path d="M 517.500 0.598 C 490.122 3.347, 475.041 5.724, 458 9.975 C 383.424 28.578, 318.204 70.498, 270.486 130.500 C 224.835 187.903, 199.209 257.717, 196.339 332.500 C 193.927 395.349, 210.801 489.693, 232.026 532.030 C 234.103 536.172, 238.165 546.972, 241.054 556.030 C 247.762 577.068, 258.631 607.029, 268.794 632.500 C 313.279 743.997, 373.986 850.692, 467.367 981.500 C 489.561 1012.589, 539.032 1079, 539.997 1079 C 542.058 1079, 625.967 964.262, 659.274 915.900 C 747.811 787.343, 807.802 671.922, 843.994 560.500 C 846.853 551.700, 851.129 540.225, 853.497 535 C 868.195 502.564, 877.260 459.362, 882.139 398.500 C 883.823 377.494, 883.840 322.430, 882.167 308 C 870.288 205.550, 817.157 116.922, 733.282 59.647 C 687.769 28.567, 638.391 10.061, 580.500 2.388 C 570.026 0.999, 525.966 -0.252, 517.500 0.598 M 554.250 154.525 C 553.013 155.847, 552 157.421, 552 158.023 C 552 158.625, 551.550 158.840, 551 158.500 C 550.450 158.160, 550 158.359, 550 158.941 C 550 159.523, 549.148 160, 548.107 160 C 547.066 160, 545.955 160.675, 545.638 161.500 C 545.322 162.325, 543.950 163, 542.590 163 C 541.231 163, 539.840 163.450, 539.500 164 C 539.160 164.550, 535.084 165, 530.441 165 C 525.480 165, 522 165.412, 522 166 C 522 166.550, 521.290 167, 520.422 167 C 519.553 167, 517.114 168.800, 515 171 C 512.886 173.200, 510.672 175, 510.078 175 C 509.485 175, 509 175.675, 509 176.500 C 509 177.325, 508.536 178, 507.969 178 C 507.401 178, 506.678 177.325, 506.362 176.500 C 506.045 175.675, 504.934 175, 503.893 175 C 502.852 175, 502 174.550, 502 174 C 502 173.450, 500.200 173, 498 173 C 495.800 173, 494 173.450, 494 174 C 494 174.550, 493.293 175, 492.429 175 C 491.564 175, 490.214 175.643, 489.429 176.429 C 487.761 178.096, 487.510 182, 489.070 182 C 489.658 182, 489.995 182.932, 489.820 184.070 C 489.453 186.445, 476.795 193.884, 476.193 192.078 C 475.995 191.485, 474.971 191, 473.917 191 C 472.863 191, 472 190.550, 472 190 C 472 189.450, 469.706 189, 466.901 189 C 462.487 189, 461.413 189.417, 458.901 192.106 C 456.611 194.558, 456 196.137, 456 199.606 C 456 202.023, 455.550 204, 455 204 C 454.450 204, 454 203.550, 454 203 C 454 202.450, 452.650 202, 451 202 C 449.350 202, 448 202.450, 448 203 C 448 203.550, 447.325 204, 446.500 204 C 445.675 204, 443.200 205.800, 441 208 C 437.047 211.953, 437 212.088, 437 219.471 L 437 226.943 440.250 227.785 C 442.508 228.370, 443.500 229.218, 443.500 230.564 C 443.500 232.017, 442.690 232.578, 440.250 232.813 C 438.462 232.986, 437 233.548, 437 234.063 C 437 234.579, 436.293 235, 435.429 235 C 431.938 235, 430.615 238.015, 430.188 246.942 C 429.851 253.992, 430.077 255.934, 431.387 257.244 C 432.274 258.131, 433 259.339, 433 259.929 C 433 260.518, 433.860 261, 434.911 261 C 435.962 261, 437.951 262.341, 439.330 263.980 L 441.838 266.961 463.625 267.230 L 485.412 267.500 486.138 271 C 486.537 272.925, 487.818 283.275, 488.984 294 C 492.255 324.100, 492.901 329.849, 494.034 339 C 494.613 343.675, 495.502 351.325, 496.010 356 C 497.241 367.328, 498.755 380.611, 500 391 C 500.560 395.675, 501.460 403.550, 502 408.500 C 502.540 413.450, 503.452 421.325, 504.027 426 C 505.416 437.298, 506.857 449.608, 508.005 460 C 508.522 464.675, 509.245 471.087, 509.612 474.250 C 510.355 480.649, 510.165 480.802, 504.446 478.413 C 498.950 476.117, 493.252 477.237, 488.131 481.619 C 485.859 483.564, 484 485.746, 484 486.467 C 484 487.188, 483.168 488.805, 482.152 490.060 C 480.312 492.333, 480.297 492.299, 478.528 481.421 C 477.551 475.415, 476.352 467.833, 475.865 464.573 C 474.874 457.940, 474 456.115, 474 460.678 C 474 464.798, 470.634 467.877, 467.958 466.206 C 465.609 464.739, 450 464.560, 450 466 C 450 466.550, 449.308 467, 448.463 467 C 447.617 467, 444.957 469.025, 442.552 471.500 C 440.146 473.975, 437.668 476, 437.044 476 C 435.426 476, 431.365 471.724, 430.552 469.165 C 429.952 467.275, 429.134 467, 424.098 467 C 418.995 467, 418.033 467.334, 415.748 469.898 C 414.328 471.492, 413.016 473.855, 412.833 475.148 C 412.590 476.867, 411.759 477.585, 409.750 477.816 C 408.238 477.990, 407 477.653, 407 477.066 C 407 476.400, 403.999 476, 399 476 C 394.333 476, 391 476.417, 391 477 C 391 477.550, 390.293 478, 389.429 478 C 388.564 478, 387.269 478.563, 386.551 479.250 C 385.833 479.938, 384.290 481.162, 383.123 481.971 C 381.955 482.780, 381 484.311, 381 485.374 C 381 487.205, 380.902 487.193, 379.133 485.153 C 378.106 483.969, 376.531 483, 375.633 483 C 374.735 483, 374 482.550, 374 482 C 374 481.450, 372.425 481, 370.500 481 C 368.575 481, 367 481.450, 367 482 C 367 482.550, 366.100 483, 365 483 C 363.373 483, 363 483.667, 363 486.571 C 363 490.322, 364.820 493, 367.370 493 C 368.201 493, 369.110 493.370, 369.390 493.822 C 370.052 494.893, 366.408 498, 364.489 498 C 363.670 498, 363 498.450, 363 499 C 363 499.550, 362.293 500, 361.429 500 C 359.675 500, 357 502.323, 357 503.845 C 357 504.389, 356.438 505.021, 355.750 505.250 C 354.909 505.531, 354.523 507.814, 354.571 512.226 C 354.651 519.542, 356.124 522, 360.429 522 C 361.843 522, 363 522.450, 363 523 C 363 523.564, 365.833 524, 369.500 524 L 376 524 376 529.071 C 376 532.133, 376.566 534.709, 377.429 535.571 C 379.621 537.764, 386.266 537.405, 388 535 C 388.901 533.750, 390.589 533, 392.500 533 C 394.411 533, 396.099 533.750, 397 535 C 397.793 536.100, 399.242 537, 400.221 537 C 401.199 537, 402 537.450, 402 538 C 402 538.550, 402.900 539, 404 539 C 405.100 539, 406 539.450, 406 540 C 406 540.563, 408.814 541, 412.441 541 C 415.984 541, 419.160 540.550, 419.500 540 C 419.840 539.450, 420.799 539, 421.630 539 C 423.937 539, 426 536.437, 426 533.571 C 426 532.157, 426.450 531, 427 531 C 427.550 531, 428 528.975, 428 526.500 C 428 524.025, 427.550 522, 427 522 C 426.450 522, 425.986 521.212, 425.968 520.250 C 425.926 517.946, 424.133 515.827, 420.750 514.081 C 416.367 511.820, 417.498 511, 425 511 C 430.673 511, 432 510.705, 432 509.441 C 432 508.552, 432.478 508.177, 433.112 508.569 C 433.833 509.015, 433.996 510.972, 433.576 514.138 C 432.899 519.242, 434.384 527, 436.039 527 C 436.567 527, 437 527.686, 437 528.525 C 437 529.422, 438.244 530.299, 440.021 530.654 C 441.682 530.986, 443.284 531.650, 443.580 532.129 C 444.330 533.343, 452 533.226, 452 532 C 452 531.450, 453.125 531, 454.500 531 C 456.056 531, 457 530.433, 457 529.500 C 457 528.667, 457.889 528, 459 528 C 460.100 528, 461 528.450, 461 529 C 461 529.550, 463.025 530, 465.500 530 C 467.975 530, 470 529.550, 470 529 C 470 528.450, 470.900 528, 472 528 C 473.100 528, 474 527.550, 474 527 C 474 526.450, 474.450 526, 475 526 C 475.550 526, 476 527.370, 476 529.045 C 476 532.045, 479.710 537, 481.955 537 C 482.530 537, 483 537.450, 483 538 C 483 538.550, 483.900 539, 485 539 C 486.100 539, 487 539.450, 487 540 C 487 540.578, 490.167 541, 494.500 541 C 498.833 541, 502 540.578, 502 540 C 502 539.450, 502.935 539, 504.078 539 C 505.222 539, 507.886 537.200, 510 535 C 512.114 532.800, 514.377 531, 515.029 531 C 515.681 531, 515.955 530.325, 515.638 529.500 C 515.288 528.586, 515.637 528, 516.531 528 C 518.638 528, 518.609 518.448, 516.500 517.638 C 515.675 517.322, 515 516.355, 515 515.490 C 515 514.624, 514.212 513.114, 513.250 512.132 C 511.499 510.347, 502.864 506, 501.070 506 C 500.546 506, 499.857 505.577, 499.537 505.061 C 499.020 504.224, 510.836 496.489, 511.533 497.208 C 512.242 497.940, 513.915 509.329, 513.428 510.116 C 512.526 511.576, 536.590 511.214, 537.720 509.750 C 538.675 508.511, 538.276 498.825, 536.028 468.750 C 534.067 442.512, 532.957 427.430, 532 414 C 531.471 406.575, 530.587 394.425, 530.036 387 C 529.485 379.575, 528.561 366.975, 527.983 359 C 526.149 333.691, 524.992 317.904, 523.917 303.500 C 523.342 295.800, 522.536 285, 522.125 279.500 C 521.715 274, 521.545 269.163, 521.749 268.750 C 522.540 267.143, 531.977 268.016, 535.226 269.996 C 539.391 272.536, 543.047 272.537, 546.273 270 C 548.302 268.404, 550.330 268, 556.314 268 L 563.813 268 564.440 277.250 C 564.785 282.337, 565.502 311.700, 566.033 342.500 C 566.564 373.300, 567.461 418.075, 568.026 442 C 568.590 465.925, 569.153 491.233, 569.276 498.240 L 569.500 510.981 582 510.990 L 594.500 511 594.528 503.250 C 594.593 485.490, 599.118 288.129, 599.836 271.750 L 600 268 620.941 268 C 632.459 268, 642.133 268.406, 642.439 268.902 C 642.746 269.398, 642.528 275.360, 641.956 282.152 C 641.383 288.943, 640.465 300.800, 639.915 308.500 C 637.817 337.891, 633.732 394.131, 632.017 417.250 C 631.476 424.537, 630.559 437.025, 629.979 445 C 629.400 452.975, 628.485 465.350, 627.948 472.500 C 627.410 479.650, 626.692 491.238, 626.352 498.250 L 625.735 511 637.728 511 L 649.721 511 650.396 505.750 C 651.144 499.923, 652.534 488.171, 654.091 474.500 C 654.655 469.550, 655.537 461.900, 656.052 457.500 C 656.567 453.100, 657.443 445.450, 658 440.500 C 658.557 435.550, 659.433 427.900, 659.948 423.500 C 660.463 419.100, 661.384 411.225, 661.996 406 C 663.224 395.509, 664.391 385.381, 666.027 371 C 666.622 365.775, 667.522 357.900, 668.027 353.500 C 668.533 349.100, 669.433 341.225, 670.027 336 C 672.459 314.634, 672.979 310.128, 673.953 302 C 674.514 297.325, 675.427 288.401, 675.982 282.168 C 676.538 275.936, 677.370 270.162, 677.831 269.337 C 678.532 268.084, 681.942 267.835, 698.585 267.818 C 709.538 267.807, 720.188 267.569, 722.250 267.290 C 725.996 266.782, 726 266.776, 726 261.950 C 726 259.292, 725.543 256.835, 724.984 256.490 C 723.038 255.287, 725.144 254, 729.059 254 C 731.227 254, 733 253.599, 733 253.108 C 733 252.618, 734.125 251.934, 735.500 251.589 C 737.114 251.184, 738 250.260, 738 248.981 C 738 247.891, 738.450 247, 739 247 C 739.550 247, 740 245.650, 740 244 C 740 242.350, 739.550 241, 739 241 C 738.450 241, 738 240.305, 738 239.455 C 738 237.775, 733.674 233, 732.152 233 C 731.636 233, 730.939 232.283, 730.603 231.407 C 730.104 230.108, 729.068 229.941, 724.996 230.501 C 720.883 231.066, 720 230.918, 720 229.661 C 720 228.822, 720.900 227.849, 722 227.500 C 723.100 227.151, 724 225.996, 724 224.933 C 724 223.870, 724.450 223, 725 223 C 725.550 223, 726 222.100, 726 221 C 726 219.889, 726.667 219, 727.500 219 C 728.500 219, 729 218, 729 216 C 729 214, 728.500 213, 727.500 213 C 726.495 213, 726 211.995, 726 209.955 C 726 206.105, 722.090 202.028, 718.295 201.921 C 716.758 201.878, 716.063 201.615, 716.750 201.338 C 718.231 200.740, 718.464 193, 717 193 C 716.450 193, 716 192.100, 716 191 C 716 189.900, 715.550 189, 715 189 C 714.450 189, 714 188.100, 714 187 C 714 185.900, 713.550 185, 713 185 C 712.450 185, 711.996 184.438, 711.992 183.750 C 711.983 182.252, 707.456 180, 704.454 180 C 701.579 180, 696 182.852, 695.999 184.323 C 695.998 184.970, 694.933 184.262, 693.632 182.750 C 691.781 180.597, 690.393 180, 687.241 180 C 684.511 180, 683.021 180.504, 682.614 181.563 C 681.238 185.149, 680 181.331, 680 173.500 C 680 168.890, 679.550 164.840, 679 164.500 C 678.450 164.160, 678 163.213, 678 162.396 C 678 160.442, 673.517 156, 671.545 156 C 670.695 156, 670 155.550, 670 155 C 670 154.450, 668.200 154, 666 154 C 663.800 154, 662 154.450, 662 155 C 662 155.550, 661.571 156, 661.048 156 C 659.764 156, 650 165.827, 650 167.119 C 650 167.682, 649.323 168.820, 648.495 169.648 C 647.155 170.988, 646.561 170.706, 643.073 167.076 C 638.224 162.029, 634.979 161.740, 631 166 C 629.459 167.650, 627.808 169, 627.332 169 C 626.856 169, 626.419 170.800, 626.361 173 C 626.286 175.882, 626.663 177, 627.712 177 C 628.512 177, 628.982 177.563, 628.756 178.250 C 628.530 178.938, 626.467 179.638, 624.172 179.807 C 621.265 180.022, 620 180.570, 620 181.617 C 620 182.442, 619.550 182.840, 619 182.500 C 618.450 182.160, 618 180.334, 618 178.441 C 618 176.082, 617.538 175, 616.531 175 C 615.657 175, 615.289 174.411, 615.621 173.544 C 615.931 172.737, 615.047 170.956, 613.635 169.544 C 611.521 167.430, 610.153 167, 605.545 167 C 602.495 167, 600 167.450, 600 168 C 600 168.550, 598.650 169, 597 169 C 595.350 169, 594 169.450, 594 170 C 594 170.550, 593.281 171, 592.401 171 C 591.522 171, 589.541 172.350, 588 174 C 586.459 175.650, 584.765 177, 584.236 177 C 583.707 177, 583.031 173.980, 582.735 170.289 C 582.318 165.094, 581.722 163.193, 580.098 161.878 C 578.944 160.944, 578 159.894, 578 159.544 C 578 158.259, 573.042 154, 571.545 154 C 570.695 154, 570 153.550, 570 153 C 570 152.426, 567.124 152.026, 563.250 152.061 C 557.458 152.114, 556.181 152.463, 554.250 154.525" stroke="none" fill="black" fill-rule="evenodd"/>
</svg>